<svg width="20" height="15" viewBox="0 0 20 15" fill="none" xmlns="http://www.w3.org/2000/svg">
<path d="M2.4 0C1.07452 0 0 1.07452 0 2.4V3.6H19.2V2.4C19.2 1.07452 18.1255 0 16.8 0H2.4Z" fill="#FE8C00"/>
<path fill-rule="evenodd" clip-rule="evenodd" d="M19.2 6H0V12C0 13.3255 1.07452 14.4 2.4 14.4H16.8C18.1255 14.4 19.2 13.3255 19.2 12V6ZM2.4 10.8C2.4 10.1373 2.93726 9.6 3.6 9.6H4.8C5.46274 9.6 6 10.1373 6 10.8C6 11.4627 5.46274 12 4.8 12H3.6C2.93726 12 2.4 11.4627 2.4 10.8ZM8.4 9.6C7.73726 9.6 7.2 10.1373 7.2 10.8C7.2 11.4627 7.73726 12 8.4 12H9.6C10.2627 12 10.8 11.4627 10.8 10.8C10.8 10.1373 10.2627 9.6 9.6 9.6H8.4Z" fill="#FE8C00"/>
</svg>
